<svg xmlns="http://www.w3.org/2000/svg" viewBox="0 0 142.13 153.88"><defs><style>.cls-1{opacity:0.56;}.cls-2{fill:#703416;}.cls-3{fill:#ef558b;}.cls-4{fill:#cf497c;}.cls-5{fill:#4788c8;}.cls-6{fill:#f9a21b;}.cls-7,.cls-8{fill:none;stroke:#000;stroke-linecap:round;stroke-miterlimit:10;}.cls-7{stroke-width:2px;}</style></defs><title>Donutsnf</title><g id="Layer_2" data-name="Layer 2"><g id="Layer_1-2" data-name="Layer 1"><g class="cls-1"><path class="cls-2" d="M113.43,7.11A51.41,51.41,0,0,0,91.4.39C74.29-.93,55.92,5.66,40.42,18.5c-1.54,1.28-3,2.65-4.52,4A97.6,97.6,0,0,0,21.22,40.11a.21.21,0,0,1-.06.11c-.53.84-1.06,1.65-1.59,2.51s-1,1.68-1.54,2.54A96.78,96.78,0,0,0,12.25,57c-15,35.71-7,74.21,20.41,90,30.37,17.56,73.09.45,95.4-38.16S143.8,24.65,113.43,7.11ZM47.65,61.22C56.42,46,73.23,39.3,85.18,46.23s14.52,24.79,5.75,40-25.57,21.94-37.52,15S38.86,76.43,47.65,61.22Z"/><path class="cls-3" d="M108.32,6.53a38.41,38.41,0,0,0-7-3.55A40.52,40.52,0,0,0,91.4.39c-16.5-2.15-35.15,4.8-51,18.12-1.54,1.28-3,2.65-4.52,4A105.1,105.1,0,0,0,21.22,40.11a.21.21,0,0,1-.06.11c-.53.84-1.06,1.65-1.59,2.51s-1,1.68-1.54,2.54A96.78,96.78,0,0,0,12.25,57C.44,85.7,3.43,117.81,18.34,133.08A30.14,30.14,0,0,0,24.45,138,29,29,0,0,0,29,140.2l.22.08,1.54.5c1.65.5,3.29.92,5,1.31a72.33,72.33,0,0,0,10.05,1.56l.5,0c17.92,1.34,36.21-4.3,51.51-17.76l0,0a.49.49,0,0,1,.14-.11c1.09-1,2.18-2,3.24-3a86.8,86.8,0,0,0,10.3-12.31l0,0c.84-1.2,1.68-2.43,2.46-3.69,1.17-1.81,2.26-3.71,3.35-5.67a118.49,118.49,0,0,0,5.7-11.89v-.06c.28-.64.53-1.31.78-2q1-2.6,1.84-5.19c.31-.92.59-1.84.87-2.79l0,0c.81-2.79,1.54-5.61,2.09-8.4a86.78,86.78,0,0,0,1.51-10.47.09.09,0,0,0,0-.06C132.13,37.52,124.93,17.19,108.32,6.53ZM90.93,86.21c-8.77,15.22-25.57,21.94-37.52,15s-14.55-24.79-5.75-40,25.57-21.92,37.52-15S99.69,71,90.93,86.21Z"/><path class="cls-3" d="M18.34,133.08s4.8,2.75,6.14,4.91.63,1.9,1,3.08,2.13,1.6,2,0,1.32-1,1.81-.8,7.49,1.08,8.66,3.61-.47,3.12,0,3.93,2.33,2.21,2.21.7-.92-2.33,0-3.37,3-1.65,5.69-1.49,2,.79,4.31,2.07,8.38,2.09,9.89.23,5.33-3.49,6.23-3.7a6.89,6.89,0,0,1,5.28.91c2,1.4,2.33,5.23,5.47,2.68s4.07-7.56,8-7,10.12-5.23,10.59-7.33.57-4.11,2.24-5.63,4-5.06,6.48-3.09c1.27,1,.81,2,1.74,3.72,1.29,2.35,3.81,4.33,4.54,1.74s-1.51-3.34-2-4c-1.2-1.57-.06-8.2,2.05-12.32,2.72-5.3,6.46-9.85,8.54-7.46a58.89,58.89,0,0,1,4,4.93c1.48,1.75,4.64-1.21,3.24-4s-5.26-.6-4.65-7.68,1.69-13,3.72-10.93c5,5.13,8.25,3.94,8,1.64-.29-2.55-5.41-3.32-6.59-3.74s-1.75-4.14-.35-5.62,1.4-4.5,4-2.64,7.21,4.07,6.16,0-5-2.67-6.17-2.79-3.84-8-3-9.43-.47,4.07,3-4.89,5-14.08,2.45-16.63-2.79-7.21-3.61-10.47a17.55,17.55,0,0,0-4.42-8.38c-2.72-3.16-.12-8.14-4.42-10.12s-10-6.09-10.82-7.56-7.52-3-8.33-3.3,18.8,29.94,18.8,29.94l-4,28.85L106.9,99.2S95,114.78,94.1,115.48s-13.26,9.54-14.42,10S42,134.56,40.59,134.79s-18.15-2.33-18.15-2.33Z"/><path class="cls-4" d="M53.41,101.23S41.15,95.47,42.57,77.05c1.22-15.89,12.77-25.21,15.14-27.34,1.18-1.06,17.37-13.27,31.78-.13,0,0-6.61-13.55-29.41-11.17C37.59,40.77,32.62,73.82,34,80.93,34.65,84.62,36.4,99.55,53.41,101.23Z"/><circle class="cls-5" cx="90.45" cy="113.39" r="0.12"/><circle class="cls-5" cx="96.18" cy="97.88" r="0.69"/><circle class="cls-5" cx="119.68" cy="70.14" r="0.76"/><circle class="cls-5" cx="27.17" cy="81.91" r="1.37"/><circle class="cls-5" cx="42.62" cy="67.02" r="1.08"/><circle class="cls-5" cx="99.86" cy="119.14" r="0.99"/><circle class="cls-5" cx="20.66" cy="84.38" r="0.47"/><circle class="cls-5" cx="14.81" cy="117.38" r="0.34"/><circle class="cls-5" cx="34.09" cy="105.15" r="1.45"/><circle class="cls-5" cx="75.79" cy="139.67" r="0.67"/><circle class="cls-5" cx="8.47" cy="67.87" r="0.06"/><circle class="cls-5" cx="116.78" cy="32.07" r="0.34"/><circle class="cls-5" cx="121.56" cy="56.16" r="0.99"/><circle class="cls-5" cx="68.47" cy="130.7" r="1.28"/><circle class="cls-5" cx="38.08" cy="61.35" r="0.78"/><circle class="cls-5" cx="29.76" cy="55.5" r="0.73"/><circle class="cls-5" cx="76.91" cy="2.8" r="1.38"/><circle class="cls-5" cx="9.22" cy="116.24" r="0.07"/><circle class="cls-5" cx="69.71" cy="2.04" r="0.04"/><circle class="cls-5" cx="116.32" cy="66.96" r="0.84"/><circle class="cls-5" cx="114.04" cy="121.23" r="0.46"/><circle class="cls-5" cx="110.11" cy="84.94" r="0.02"/><circle class="cls-5" cx="135.65" cy="48.35" r="0.04"/><circle class="cls-5" cx="54.9" cy="119.81" r="0.15"/><circle class="cls-5" cx="25.41" cy="74.35" r="0.17"/><circle class="cls-5" cx="77.72" cy="124.31" r="1.1"/><circle class="cls-5" cx="95.93" cy="127.48" r="1.11"/><circle class="cls-5" cx="24.11" cy="41.08" r="0.18"/><circle class="cls-5" cx="91.75" cy="105.07" r="1.17"/><circle class="cls-5" cx="130.41" cy="54.85" r="0.66"/><circle class="cls-5" cx="114.09" cy="98.49" r="0.35"/><circle class="cls-5" cx="87.13" cy="14.36" r="0.26"/><circle class="cls-5" cx="17.61" cy="38.91" r="0.13"/><circle class="cls-5" cx="29.92" cy="65.89" r="0.54"/><circle class="cls-5" cx="126.35" cy="52.08" r="0.98"/><circle class="cls-5" cx="123.27" cy="82.7" r="0.8"/><circle class="cls-5" cx="124.4" cy="69.68" r="0.87"/><circle class="cls-5" cx="129.51" cy="51.44" r="0.44"/><circle class="cls-5" cx="82.96" cy="34.8" r="1.28"/><circle class="cls-5" cx="110.09" cy="51.44" r="1.26"/><circle class="cls-5" cx="85.1" cy="120.16" r="0.1"/><circle class="cls-5" cx="88.67" cy="1.45" r="1.1"/><circle class="cls-5" cx="40.8" cy="20.58" r="0.84"/><circle class="cls-5" cx="84.98" cy="126.8" r="0.41"/><circle class="cls-5" cx="69.6" cy="130.58" r="0.22"/><circle class="cls-5" cx="105.86" cy="83.36" r="1.38"/><circle class="cls-5" cx="120.46" cy="115.69" r="0.33"/><circle class="cls-5" cx="109.28" cy="91.8" r="0.41"/><circle class="cls-5" cx="73.27" cy="118" r="0.48"/><circle class="cls-5" cx="104.48" cy="70.41" r="1.02"/><circle class="cls-5" cx="87.47" cy="113.84" r="0.18"/><circle class="cls-5" cx="52.52" cy="46.52" r="0.6"/><circle class="cls-5" cx="72.48" cy="113.41" r="0.47"/><circle class="cls-5" cx="23.96" cy="132.03" r="1.01"/><circle class="cls-5" cx="19.48" cy="58.94" r="0.23"/><circle class="cls-5" cx="107.16" cy="89.93" r="0.73"/><circle class="cls-5" cx="120.6" cy="111.48" r="0.79"/><circle class="cls-5" cx="43.17" cy="45.32" r="0.82"/><circle class="cls-5" cx="24.19" cy="67.22" r="1"/><circle class="cls-5" cx="45.25" cy="45.73" r="0.95"/><circle class="cls-5" cx="64.81" cy="27.37" r="0.11"/><circle class="cls-5" cx="49.67" cy="140.67" r="0.23"/><circle class="cls-5" cx="61.68" cy="114.12" r="0.48"/><circle class="cls-5" cx="34.38" cy="85.26" r="0.2"/><circle class="cls-5" cx="128.33" cy="40.27" r="1.4"/><circle class="cls-5" cx="11.69" cy="100.85" r="0.93"/><circle class="cls-5" cx="0.04" cy="66.98" r="0.04"/><circle class="cls-5" cx="97.59" cy="91.28" r="0.29"/><circle class="cls-5" cx="122.01" cy="82.57" r="0.44"/><circle class="cls-5" cx="22.31" cy="43.05" r="1.2"/><circle class="cls-5" cx="37.11" cy="142.03" r="0.5"/><circle class="cls-5" cx="37.91" cy="120.06" r="1.28"/><circle class="cls-5" cx="79.91" cy="116.18" r="0.39"/><circle class="cls-5" cx="49.34" cy="45.34" r="0.46"/><circle class="cls-5" cx="102.23" cy="45.32" r="1"/><circle class="cls-5" cx="50.13" cy="127.94" r="0.79"/><circle class="cls-5" cx="45.98" cy="61.09" r="0.79"/><circle class="cls-5" cx="103.14" cy="115.97" r="0.91"/><circle class="cls-5" cx="112.51" cy="16.56" r="1.37"/><circle class="cls-5" cx="68.06" cy="42.96" r="0.82"/><circle class="cls-5" cx="111.57" cy="124.53" r="0.19"/><circle class="cls-5" cx="75.58" cy="109.02" r="0.22"/><circle class="cls-5" cx="89.14" cy="39.92" r="0.13"/><circle class="cls-5" cx="36.93" cy="26.76" r="1.05"/><circle class="cls-5" cx="91.05" cy="29.16" r="1.19"/><circle class="cls-5" cx="122.75" cy="57.44" r="0.56"/><circle class="cls-5" cx="109.81" cy="105.34" r="0.31"/><circle class="cls-5" cx="96.7" cy="34.25" r="0.76"/><circle class="cls-5" cx="98.65" cy="151.37" r="0.15"/><circle class="cls-5" cx="54.24" cy="122.03" r="1.1"/><circle class="cls-5" cx="56.08" cy="46.61" r="0.02"/><circle class="cls-6" cx="70.58" cy="129.56" r="0.35"/><circle class="cls-6" cx="31.96" cy="97.42" r="1.29"/><circle class="cls-6" cx="71.76" cy="23.5" r="0.29"/><circle class="cls-6" cx="83.37" cy="105.07" r="0.29"/><circle class="cls-6" cx="63.23" cy="137.85" r="0.17"/><circle class="cls-6" cx="97.76" cy="88.38" r="1.06"/><circle class="cls-6" cx="119.89" cy="30.19" r="1.39"/><circle class="cls-6" cx="49.13" cy="134.46" r="1.27"/><circle class="cls-6" cx="93.67" cy="117.02" r="0.35"/><circle class="cls-6" cx="99.06" cy="19.19" r="0.93"/><circle class="cls-6" cx="78.96" cy="26.65" r="0.97"/><circle class="cls-6" cx="15.29" cy="101.75" r="0.33"/><circle class="cls-6" cx="18.05" cy="68.22" r="1.29"/><circle class="cls-6" cx="133.52" cy="51.27" r="1.18"/><circle class="cls-6" cx="132.34" cy="56.88" r="0.96"/><circle class="cls-6" cx="110.56" cy="95.27" r="0.84"/><circle class="cls-6" cx="46.9" cy="106.67" r="0.34"/><circle class="cls-6" cx="98.12" cy="9.76" r="1.13"/><circle class="cls-6" cx="34.57" cy="46.99" r="1.1"/><circle class="cls-6" cx="101.62" cy="56.66" r="0.32"/><circle class="cls-6" cx="24.17" cy="63.36" r="0.87"/><circle class="cls-6" cx="82.19" cy="119.54" r="0.78"/><circle class="cls-6" cx="21.51" cy="101.08" r="1.1"/><circle class="cls-6" cx="12.29" cy="122.98" r="0.71"/><circle class="cls-6" cx="50.96" cy="145.7" r="0.4"/><circle class="cls-6" cx="129.06" cy="73.97" r="0.95"/><circle class="cls-6" cx="65.29" cy="36.52" r="1.09"/><circle class="cls-6" cx="125.54" cy="104.39" r="0.05"/><circle class="cls-6" cx="109.28" cy="60.78" r="0.9"/><circle class="cls-6" cx="106.6" cy="17.13" r="0.35"/><circle class="cls-6" cx="91.13" cy="150.83" r="0.07"/><circle class="cls-6" cx="44.77" cy="22.71" r="1.15"/><circle class="cls-6" cx="44.86" cy="36.87" r="1.08"/><circle class="cls-6" cx="83.44" cy="38.72" r="1.09"/><circle class="cls-6" cx="103.35" cy="107.95" r="0.34"/><circle class="cls-6" cx="69.98" cy="4.01" r="1.17"/><circle class="cls-6" cx="20.9" cy="116.83" r="0.75"/><circle class="cls-6" cx="16.74" cy="82.52" r="0.19"/><circle class="cls-6" cx="125.52" cy="58.58" r="0.23"/><circle class="cls-6" cx="41.39" cy="70.78" r="0.24"/><circle class="cls-6" cx="78.83" cy="111.82" r="0.41"/><circle class="cls-6" cx="53.76" cy="18.95" r="0.24"/><circle class="cls-6" cx="72.06" cy="104.86" r="1.29"/><circle class="cls-6" cx="89.45" cy="111.61"/><circle class="cls-6" cx="50.72" cy="109.65" r="0.98"/><circle class="cls-6" cx="25.09" cy="37.86" r="0.89"/><circle class="cls-6" cx="43.3" cy="140.05" r="0.86"/><circle class="cls-6" cx="103.25" cy="34.67" r="0.21"/><circle class="cls-6" cx="15.67" cy="117.51" r="0.76"/><circle class="cls-6" cx="38.43" cy="145.14" r="0.52"/><circle class="cls-6" cx="17.86" cy="92.94" r="0.45"/><circle class="cls-6" cx="22.02" cy="67.22" r="0.64"/><circle class="cls-6" cx="111.8" cy="29.5" r="0.08"/><circle class="cls-6" cx="14.73" cy="102.71" r="0.48"/><circle class="cls-6" cx="81.18" cy="7.06" r="1.17"/><circle class="cls-6" cx="118.9" cy="13.67" r="0.07"/><circle class="cls-6" cx="98.02" cy="124.05" r="1"/><circle class="cls-6" cx="96.71" cy="61.49" r="0.2"/><circle class="cls-6" cx="28.48" cy="133.33" r="1.31"/><circle class="cls-6" cx="111.76" cy="74.35" r="1.33"/><circle class="cls-6" cx="123.29" cy="69.91" r="0.5"/><circle class="cls-6" cx="114.09" cy="38.91" r="1.06"/><circle class="cls-6" cx="11.76" cy="73.67" r="0.53"/><circle class="cls-6" cx="85.29" cy="112.17" r="0.68"/><circle class="cls-6" cx="29.33" cy="32.06" r="0.27"/><circle class="cls-6" cx="76.38" cy="7.43" r="0.31"/><circle class="cls-6" cx="125.76" cy="49.03" r="1.05"/><circle class="cls-6" cx="142.11" cy="90.88" r="0.02"/><circle class="cls-6" cx="86.29" cy="137.07" r="0.61"/><circle class="cls-6" cx="46.39" cy="61.14" r="0.36"/><circle class="cls-6" cx="56.8" cy="9.48" r="0.28"/><circle class="cls-6" cx="126.64" cy="44.15" r="0.11"/><circle class="cls-6" cx="61.27" cy="21.91" r="1.04"/><path class="cls-7" d="M23.57,41.84s4.68,11.83,19.36,7.76"/><path class="cls-8" d="M73.65,94.7S66.38,46.52,31.92,84.42"/><path class="cls-7" d="M95.27,56.76s6.81,10.75,20.47,4"/></g></g></g></svg>