<svg xmlns="http://www.w3.org/2000/svg" viewBox="0 0 242.84 68.31"><defs><style>.cls-1,.cls-7{fill:#ee376e;}.cls-1{stroke:#ee376e;stroke-miterlimit:10;stroke-width:0.5px;}.cls-2{fill:#703416;}.cls-3{fill:#ef558b;}.cls-4{fill:#cf497c;}.cls-5{fill:#4788c8;}.cls-6{fill:#f9a21b;}</style></defs><title>Donuts</title><g id="Layer_2" data-name="Layer 2"><g id="Layer_1-2" data-name="Layer 1"><path class="cls-1" d="M212.65,42.79a8.93,8.93,0,0,1-4.48-1.09,7.75,7.75,0,0,1-3-3,8.81,8.81,0,0,1-1.07-4.4,9.57,9.57,0,0,1,1.1-4.75,7.82,7.82,0,0,1,2.88-3,7.33,7.33,0,0,1,3.76-1,7.69,7.69,0,0,1,2.85.54,7.23,7.23,0,0,1,2.43,1.58,8,8,0,0,1,1.7,2.5,8.37,8.37,0,0,1,.67,3.25,1.13,1.13,0,0,1-.38.86,1.28,1.28,0,0,1-.9.35H205.57L205,32.39h12.32l-.51.45v-.7a4.2,4.2,0,0,0-.88-2.26,5.2,5.2,0,0,0-4.08-2,5.64,5.64,0,0,0-1.9.34,4.53,4.53,0,0,0-1.7,1.09A5.57,5.57,0,0,0,207,31.27a7.81,7.81,0,0,0-.46,2.85,6.83,6.83,0,0,0,.75,3.26,5.68,5.68,0,0,0,2.1,2.22,5.92,5.92,0,0,0,3.14.82,6,6,0,0,0,2-.29,5.68,5.68,0,0,0,1.44-.72,6.64,6.64,0,0,0,1-.88,1.41,1.41,0,0,1,.8-.29,1,1,0,0,1,.78.32,1.08,1.08,0,0,1,.3.77,1.22,1.22,0,0,1-.51,1A7.92,7.92,0,0,1,215.91,42,7.33,7.33,0,0,1,212.65,42.79Z"/><path class="cls-1" d="M176.65,42.47a1.21,1.21,0,0,1-.91-.38,1.29,1.29,0,0,1-.37-.93v-14a1.3,1.3,0,0,1,2.21-.91,1.27,1.27,0,0,1,.35.91v4.22l-.38-.67a7,7,0,0,1,.69-1.94,6.78,6.78,0,0,1,1.26-1.7,5.81,5.81,0,0,1,1.76-1.18,5.39,5.39,0,0,1,2.18-.43,2.58,2.58,0,0,1,1.3.34,1,1,0,0,1,.59.94,1.28,1.28,0,0,1-.35,1,1.16,1.16,0,0,1-.8.32,1.89,1.89,0,0,1-.8-.18,2.31,2.31,0,0,0-1-.18,3.25,3.25,0,0,0-1.58.43,5,5,0,0,0-1.44,1.23,6.77,6.77,0,0,0-1.06,1.81,5.79,5.79,0,0,0-.4,2.16v7.78a1.29,1.29,0,0,1-.37.93A1.21,1.21,0,0,1,176.65,42.47Z"/><path class="cls-1" d="M189.73,42.47a1.2,1.2,0,0,1-.93-.38,1.32,1.32,0,0,1-.35-.93V20.07a1.27,1.27,0,0,1,.35-.91,1.23,1.23,0,0,1,.93-.37A1.26,1.26,0,0,1,191,20.07V41.16a1.29,1.29,0,0,1-.37.93A1.21,1.21,0,0,1,189.73,42.47Zm10.62-16.64a1.16,1.16,0,0,1,.88.4,1.13,1.13,0,0,1-.14,1.78l-10.37,9.06-.1-3,8.83-7.87A1.23,1.23,0,0,1,200.36,25.83Zm.35,16.61a1.32,1.32,0,0,1-1-.42l-6.82-7.26L194.85,33l6.75,7.23a1.38,1.38,0,0,1,.38,1,1.08,1.08,0,0,1-.45.91A1.42,1.42,0,0,1,200.71,42.44Z"/><path class="cls-2" d="M202.85,3.16a22.82,22.82,0,0,0-9.78-3c-7.6-.58-15.75,2.34-22.63,8-.68.57-1.35,1.18-2,1.8a43.32,43.32,0,0,0-6.52,7.79.09.09,0,0,1,0,0c-.24.37-.47.73-.71,1.12s-.46.74-.68,1.13a43,43,0,0,0-2.57,5.19c-6.65,15.85-3.09,32.94,9.06,40,13.48,7.79,32.44.2,42.35-16.94S216.33,10.94,202.85,3.16Zm-29.2,24c3.89-6.74,11.35-9.73,16.66-6.65s6.44,11,2.55,17.75S181.51,48,176.21,44.93,169.75,33.93,173.65,27.17Z"/><path class="cls-3" d="M200.58,2.9a17.05,17.05,0,0,0-3.11-1.57,18,18,0,0,0-4.4-1.15c-7.32-1-15.6,2.13-22.63,8-.68.57-1.35,1.18-2,1.8a46.65,46.65,0,0,0-6.52,7.79.09.09,0,0,1,0,0c-.24.37-.47.73-.71,1.12s-.46.74-.68,1.13a43,43,0,0,0-2.57,5.19c-5.24,12.75-3.92,27,2.7,33.78a13.38,13.38,0,0,0,2.71,2.17,12.86,12.86,0,0,0,2,1l.1,0,.68.22c.73.22,1.46.41,2.21.58a32.11,32.11,0,0,0,4.46.69h.22a30.8,30.8,0,0,0,22.86-7.88h0l.06,0c.48-.43,1-.88,1.44-1.35A38.53,38.53,0,0,0,202,49h0c.37-.53.74-1.08,1.09-1.64.52-.81,1-1.65,1.49-2.52a52.6,52.6,0,0,0,2.53-5.28v0c.12-.29.24-.58.35-.88q.45-1.15.82-2.31c.14-.41.26-.82.38-1.24h0c.36-1.24.68-2.49.93-3.73a38.52,38.52,0,0,0,.67-4.65,0,0,0,0,0,0,0C211.15,16.65,208,7.63,200.58,2.9Zm-7.72,35.37C189,45,181.51,48,176.21,44.93s-6.46-11-2.55-17.76,11.35-9.73,16.66-6.65S196.75,31.52,192.86,38.27Z"/><path class="cls-3" d="M160.64,59.07a10.31,10.31,0,0,1,2.73,2.18c.59,1,.28.84.44,1.37s.94.71.88,0,.59-.43.8-.35,3.33.48,3.84,1.6-.21,1.38,0,1.75,1,1,1,.31-.41-1,0-1.5a3.21,3.21,0,0,1,2.53-.66c1.19.07.88.35,1.91.92s3.72.93,4.39.1a7,7,0,0,1,2.77-1.64,3.06,3.06,0,0,1,2.34.4c.88.62,1,2.32,2.43,1.19s1.81-3.36,3.56-3.1,4.49-2.32,4.7-3.25a4.18,4.18,0,0,1,1-2.5c.74-.67,1.78-2.25,2.88-1.37.56.45.36.89.77,1.65.57,1,1.69,1.92,2,.77s-.67-1.48-.88-1.76c-.53-.7,0-3.64.91-5.47,1.21-2.35,2.87-4.37,3.79-3.31a26.14,26.14,0,0,1,1.76,2.19c.66.78,2.06-.54,1.44-1.78s-2.33-.26-2.07-3.41.75-5.78,1.65-4.85c2.22,2.28,3.66,1.75,3.54.73s-2.4-1.47-2.92-1.66-.78-1.84-.16-2.49.62-2,1.76-1.17,3.2,1.81,2.74,0-2.22-1.19-2.74-1.24-1.7-3.56-1.34-4.18-.21,1.81,1.34-2.17,2.22-6.25,1.09-7.38-1.24-3.2-1.6-4.65a7.79,7.79,0,0,0-2-3.72c-1.21-1.4-.05-3.61-2-4.49s-4.45-2.7-4.8-3.36-3.34-1.33-3.7-1.47,8.35,13.29,8.35,13.29l-1.76,12.81L200,44s-5.27,6.92-5.68,7.23-5.89,4.23-6.4,4.44-16.73,4-17.35,4.13-8.06-1-8.06-1Z"/><path class="cls-4" d="M176.21,44.93s-5.44-2.56-4.81-10.73c.54-7.06,5.67-11.19,6.72-12.14.52-.47,7.71-5.89,14.11-.06,0,0-2.94-6-13.06-5S167,32.77,167.58,35.93C167.88,37.56,168.66,44.19,176.21,44.93Z"/><circle class="cls-5" cx="192.65" cy="50.33" r="0.05"/><circle class="cls-5" cx="195.19" cy="43.45" r="0.3"/><circle class="cls-5" cx="205.63" cy="31.14" r="0.34"/><circle class="cls-5" cx="164.56" cy="36.36" r="0.61"/><circle class="cls-5" cx="171.42" cy="29.75" r="0.48"/><circle class="cls-5" cx="196.83" cy="52.89" r="0.44"/><circle class="cls-5" cx="161.67" cy="37.45" r="0.21"/><circle class="cls-5" cx="159.08" cy="52.11" r="0.15"/><circle class="cls-5" cx="167.63" cy="46.68" r="0.64"/><circle class="cls-5" cx="186.14" cy="62" r="0.3"/><circle class="cls-5" cx="156.26" cy="30.13" r="0.03"/><circle class="cls-5" cx="204.34" cy="14.23" r="0.15"/><circle class="cls-5" cx="206.46" cy="24.93" r="0.44"/><circle class="cls-5" cx="182.89" cy="58.02" r="0.57"/><circle class="cls-5" cx="169.4" cy="27.23" r="0.34"/><circle class="cls-5" cx="165.71" cy="24.63" r="0.33"/><circle class="cls-5" cx="186.64" cy="1.24" r="0.61"/><circle class="cls-5" cx="156.59" cy="51.6" r="0.03"/><circle class="cls-5" cx="183.45" cy="0.9" r="0.02"/><circle class="cls-5" cx="204.13" cy="29.72" r="0.37"/><circle class="cls-5" cx="203.12" cy="53.81" r="0.2"/><circle class="cls-5" cx="201.38" cy="37.7" r="0.01"/><circle class="cls-5" cx="212.71" cy="21.46" r="0.02"/><circle class="cls-5" cx="176.87" cy="53.18" r="0.06"/><circle class="cls-5" cx="163.78" cy="33" r="0.07"/><circle class="cls-5" cx="187" cy="55.18" r="0.49"/><circle class="cls-5" cx="195.08" cy="56.59" r="0.49"/><circle class="cls-5" cx="163.2" cy="18.24" r="0.08"/><circle class="cls-5" cx="193.23" cy="46.64" r="0.52"/><circle class="cls-5" cx="210.39" cy="24.35" r="0.29"/><circle class="cls-5" cx="203.14" cy="43.72" r="0.15"/><circle class="cls-5" cx="191.18" cy="6.37" r="0.12"/><circle class="cls-5" cx="160.32" cy="17.27" r="0.06"/><circle class="cls-5" cx="165.78" cy="29.25" r="0.24"/><circle class="cls-5" cx="208.59" cy="23.12" r="0.44"/><circle class="cls-5" cx="207.22" cy="36.71" r="0.35"/><circle class="cls-5" cx="207.72" cy="30.93" r="0.39"/><circle class="cls-5" cx="209.99" cy="22.83" r="0.2"/><circle class="cls-5" cx="189.33" cy="15.45" r="0.57"/><circle class="cls-5" cx="201.37" cy="22.83" r="0.56"/><circle class="cls-5" cx="190.28" cy="53.34" r="0.05"/><circle class="cls-5" cx="191.86" cy="0.65" r="0.49"/><circle class="cls-5" cx="170.61" cy="9.13" r="0.37"/><circle class="cls-5" cx="190.23" cy="56.29" r="0.18"/><circle class="cls-5" cx="183.4" cy="57.96" r="0.1"/><circle class="cls-5" cx="199.49" cy="37" r="0.61"/><circle class="cls-5" cx="205.97" cy="51.35" r="0.15"/><circle class="cls-5" cx="201.01" cy="40.75" r="0.18"/><circle class="cls-5" cx="185.02" cy="52.38" r="0.21"/><circle class="cls-5" cx="198.88" cy="31.26" r="0.45"/><circle class="cls-5" cx="191.33" cy="50.53" r="0.08"/><circle class="cls-5" cx="175.82" cy="20.65" r="0.27"/><circle class="cls-5" cx="184.68" cy="50.34" r="0.21"/><circle class="cls-5" cx="163.14" cy="58.61" r="0.45"/><circle class="cls-5" cx="161.15" cy="26.16" r="0.1"/><circle class="cls-5" cx="200.07" cy="39.92" r="0.32"/><circle class="cls-5" cx="206.03" cy="49.49" r="0.35"/><circle class="cls-5" cx="171.66" cy="20.12" r="0.37"/><circle class="cls-5" cx="163.24" cy="29.84" r="0.44"/><circle class="cls-5" cx="172.59" cy="20.3" r="0.42"/><circle class="cls-5" cx="181.27" cy="12.15" r="0.05"/><circle class="cls-5" cx="174.55" cy="62.44" r="0.1"/><circle class="cls-5" cx="179.88" cy="50.66" r="0.21"/><circle class="cls-5" cx="167.76" cy="37.85" r="0.09"/><circle class="cls-5" cx="209.47" cy="17.88" r="0.62"/><circle class="cls-5" cx="157.69" cy="44.76" r="0.41"/><circle class="cls-5" cx="152.52" cy="29.73" r="0.02"/><circle class="cls-5" cx="195.82" cy="40.52" r="0.13"/><circle class="cls-5" cx="206.66" cy="36.65" r="0.2"/><circle class="cls-5" cx="162.4" cy="19.11" r="0.53"/><circle class="cls-5" cx="168.97" cy="63.05" r="0.22"/><circle class="cls-5" cx="169.33" cy="53.29" r="0.57"/><circle class="cls-5" cx="187.97" cy="51.57" r="0.17"/><circle class="cls-5" cx="174.4" cy="20.13" r="0.2"/><circle class="cls-5" cx="197.88" cy="20.12" r="0.44"/><circle class="cls-5" cx="174.75" cy="56.79" r="0.35"/><circle class="cls-5" cx="172.91" cy="27.12" r="0.35"/><circle class="cls-5" cx="198.28" cy="51.48" r="0.4"/><circle class="cls-5" cx="202.44" cy="7.35" r="0.61"/><circle class="cls-5" cx="182.71" cy="19.07" r="0.36"/><circle class="cls-5" cx="202.03" cy="55.28" r="0.09"/><circle class="cls-5" cx="186.05" cy="48.39" r="0.1"/><circle class="cls-5" cx="192.07" cy="17.72" r="0.06"/><circle class="cls-5" cx="168.9" cy="11.88" r="0.46"/><circle class="cls-5" cx="192.92" cy="12.94" r="0.53"/><circle class="cls-5" cx="206.99" cy="25.5" r="0.25"/><circle class="cls-5" cx="201.24" cy="46.76" r="0.14"/><circle class="cls-5" cx="195.43" cy="15.2" r="0.34"/><circle class="cls-5" cx="196.29" cy="67.19" r="0.07"/><circle class="cls-5" cx="176.58" cy="54.17" r="0.49"/><circle class="cls-5" cx="177.39" cy="20.69" r="0.01"/><circle class="cls-6" cx="183.83" cy="57.51" r="0.16"/><circle class="cls-6" cx="166.69" cy="43.24" r="0.57"/><circle class="cls-6" cx="184.35" cy="10.43" r="0.13"/><circle class="cls-6" cx="189.51" cy="46.64" r="0.13"/><circle class="cls-6" cx="180.57" cy="61.19" r="0.08"/><circle class="cls-6" cx="195.89" cy="39.23" r="0.47"/><circle class="cls-6" cx="205.72" cy="13.4" r="0.62"/><circle class="cls-6" cx="174.31" cy="59.69" r="0.56"/><circle class="cls-6" cx="194.08" cy="51.95" r="0.16"/><circle class="cls-6" cx="196.47" cy="8.52" r="0.41"/><circle class="cls-6" cx="187.55" cy="11.83" r="0.43"/><circle class="cls-6" cx="159.29" cy="45.17" r="0.15"/><circle class="cls-6" cx="160.51" cy="30.28" r="0.57"/><circle class="cls-6" cx="211.77" cy="22.76" r="0.52"/><circle class="cls-6" cx="211.24" cy="25.25" r="0.42"/><circle class="cls-6" cx="201.58" cy="42.29" r="0.37"/><circle class="cls-6" cx="173.32" cy="47.35" r="0.15"/><circle class="cls-6" cx="196.06" cy="4.33" r="0.5"/><circle class="cls-6" cx="167.85" cy="20.86" r="0.49"/><circle class="cls-6" cx="197.61" cy="25.15" r="0.14"/><circle class="cls-6" cx="163.23" cy="28.12" r="0.39"/><circle class="cls-6" cx="188.99" cy="53.06" r="0.34"/><circle class="cls-6" cx="162.05" cy="44.87" r="0.49"/><circle class="cls-6" cx="157.96" cy="54.59" r="0.32"/><circle class="cls-6" cx="175.12" cy="64.68" r="0.18"/><circle class="cls-6" cx="209.79" cy="32.84" r="0.42"/><circle class="cls-6" cx="181.48" cy="16.21" r="0.48"/><circle class="cls-6" cx="208.23" cy="46.34" r="0.02"/><circle class="cls-6" cx="201.01" cy="26.98" r="0.4"/><circle class="cls-6" cx="199.82" cy="7.61" r="0.15"/><circle class="cls-6" cx="192.95" cy="66.95" r="0.03"/><circle class="cls-6" cx="172.37" cy="10.08" r="0.51"/><circle class="cls-6" cx="172.41" cy="16.36" r="0.48"/><circle class="cls-6" cx="189.54" cy="17.19" r="0.48"/><circle class="cls-6" cx="198.38" cy="47.92" r="0.15"/><circle class="cls-6" cx="183.57" cy="1.78" r="0.52"/><circle class="cls-6" cx="161.78" cy="51.86" r="0.33"/><circle class="cls-6" cx="159.93" cy="36.63" r="0.08"/><circle class="cls-6" cx="208.22" cy="26.01" r="0.1"/><circle class="cls-6" cx="170.88" cy="31.42" r="0.1"/><circle class="cls-6" cx="187.5" cy="49.64" r="0.18"/><circle class="cls-6" cx="176.36" cy="8.41" r="0.11"/><circle class="cls-6" cx="184.49" cy="46.55" r="0.57"/><circle class="cls-6" cx="192.21" cy="49.54"/><circle class="cls-6" cx="175.02" cy="48.67" r="0.44"/><circle class="cls-6" cx="163.64" cy="16.8" r="0.39"/><circle class="cls-6" cx="171.72" cy="62.17" r="0.38"/><circle class="cls-6" cx="198.33" cy="15.39" r="0.09"/><circle class="cls-6" cx="159.46" cy="52.16" r="0.34"/><circle class="cls-6" cx="169.56" cy="64.43" r="0.23"/><circle class="cls-6" cx="160.43" cy="41.25" r="0.2"/><circle class="cls-6" cx="162.28" cy="29.84" r="0.28"/><circle class="cls-6" cx="202.13" cy="13.09" r="0.03"/><circle class="cls-6" cx="159.04" cy="45.59" r="0.21"/><circle class="cls-6" cx="188.54" cy="3.14" r="0.52"/><circle class="cls-6" cx="205.28" cy="6.07" r="0.03"/><circle class="cls-6" cx="196.01" cy="55.06" r="0.44"/><circle class="cls-6" cx="195.43" cy="27.3" r="0.09"/><circle class="cls-6" cx="165.14" cy="59.19" r="0.58"/><circle class="cls-6" cx="202.11" cy="33" r="0.59"/><circle class="cls-6" cx="207.23" cy="31.03" r="0.22"/><circle class="cls-6" cx="203.14" cy="17.27" r="0.47"/><circle class="cls-6" cx="157.72" cy="32.7" r="0.23"/><circle class="cls-6" cx="190.36" cy="49.79" r="0.3"/><circle class="cls-6" cx="165.52" cy="14.23" r="0.12"/><circle class="cls-6" cx="186.4" cy="3.3" r="0.14"/><circle class="cls-6" cx="208.33" cy="21.77" r="0.47"/><circle class="cls-6" cx="215.58" cy="40.34" r="0.01"/><circle class="cls-6" cx="190.8" cy="60.85" r="0.27"/><circle class="cls-6" cx="173.09" cy="27.14" r="0.16"/><circle class="cls-6" cx="177.72" cy="4.21" r="0.12"/><circle class="cls-6" cx="208.72" cy="19.6" r="0.05"/><circle class="cls-6" cx="179.7" cy="9.73" r="0.46"/><path class="cls-1" d="M23,20.07A9.15,9.15,0,0,1,27.1,21a8.25,8.25,0,0,1,3,2.45A11,11,0,0,1,31.83,27a15.21,15.21,0,0,1,.59,4.27,14.51,14.51,0,0,1-1.06,5.62A9.35,9.35,0,0,1,28.23,41,8.66,8.66,0,0,1,23,42.47H15a1.21,1.21,0,0,1-.91-.38,1.29,1.29,0,0,1-.37-.93V21.35A1.26,1.26,0,0,1,15,20.07ZM22.66,40a6.44,6.44,0,0,0,4-1.18A6.79,6.79,0,0,0,29,35.63a12.67,12.67,0,0,0,.72-4.35,13.48,13.48,0,0,0-.4-3.31A8.48,8.48,0,0,0,28,25.16a6.1,6.1,0,0,0-2.18-1.92,6.72,6.72,0,0,0-3.18-.7H16.1l.26-.26v18L16.17,40Z"/><path class="cls-1" d="M52.2,34.15a8.88,8.88,0,0,1-1.1,4.45,8.23,8.23,0,0,1-3,3.07,8,8,0,0,1-4.21,1.12A8.12,8.12,0,0,1,36.7,38.6a9.51,9.51,0,0,1,0-8.9,8.12,8.12,0,0,1,7.22-4.19,8,8,0,0,1,4.21,1.12,8.24,8.24,0,0,1,3,3.07A8.88,8.88,0,0,1,52.2,34.15Zm-2.56,0a6.83,6.83,0,0,0-.75-3.26,5.69,5.69,0,0,0-2-2.21,5.76,5.76,0,0,0-5.86,0,5.81,5.81,0,0,0-2.06,2.21,6.71,6.71,0,0,0-.77,3.26,6.64,6.64,0,0,0,.77,3.23A5.93,5.93,0,0,0,41,39.61a5.66,5.66,0,0,0,5.86,0,5.81,5.81,0,0,0,2-2.22A6.76,6.76,0,0,0,49.64,34.15Z"/><path class="cls-1" d="M64.26,25.51a5.78,5.78,0,0,1,3.42.9,4.86,4.86,0,0,1,1.78,2.4A10.1,10.1,0,0,1,70,32.17v9a1.3,1.3,0,0,1-.37.93,1.28,1.28,0,0,1-1.82,0,1.29,1.29,0,0,1-.37-.93V32.23A6.18,6.18,0,0,0,67.06,30a3.28,3.28,0,0,0-1.22-1.57,4,4,0,0,0-2.32-.59,5.19,5.19,0,0,0-2.46.59A4.93,4.93,0,0,0,59.27,30a3.78,3.78,0,0,0-.67,2.19v8.93a1.29,1.29,0,0,1-.37.93,1.28,1.28,0,0,1-1.82,0,1.29,1.29,0,0,1-.37-.93v-14a1.3,1.3,0,0,1,2.21-.91,1.27,1.27,0,0,1,.35.91v2.27l-.64.7a4.53,4.53,0,0,1,.74-1.68A6.69,6.69,0,0,1,60.14,27a7.36,7.36,0,0,1,1.92-1.07A6.18,6.18,0,0,1,64.26,25.51Z"/><path class="cls-1" d="M87.11,25.93a1.23,1.23,0,0,1,.93.37,1.27,1.27,0,0,1,.35.91v8.74a6.7,6.7,0,0,1-1.81,5,8,8,0,0,1-10,0,6.7,6.7,0,0,1-1.81-5V27.21a1.3,1.3,0,0,1,2.21-.91,1.27,1.27,0,0,1,.35.91v8.74a4.47,4.47,0,0,0,1.12,3.3,5,5,0,0,0,6.32,0,4.51,4.51,0,0,0,1.1-3.3V27.21a1.26,1.26,0,0,1,1.28-1.28Z"/><path class="cls-1" d="M92.49,26H100a1.12,1.12,0,0,1,.85.35,1.17,1.17,0,0,1,.34.83A1.15,1.15,0,0,1,100,28.39H92.49a1.13,1.13,0,0,1-.83-.35,1.17,1.17,0,0,1-.35-.86,1.08,1.08,0,0,1,.35-.82A1.16,1.16,0,0,1,92.49,26Zm3.36-4.35a1.19,1.19,0,0,1,.9.37,1.27,1.27,0,0,1,.35.91V38.41a2.34,2.34,0,0,0,.22,1.15,1.18,1.18,0,0,0,.59.53,2,2,0,0,0,.72.14,1.31,1.31,0,0,0,.56-.11,1.32,1.32,0,0,1,.56-.11.79.79,0,0,1,.59.3,1.13,1.13,0,0,1,.27.78,1.15,1.15,0,0,1-.67,1,2.88,2.88,0,0,1-1.5.4q-.45,0-1.1-.06A3.35,3.35,0,0,1,96,42,2.74,2.74,0,0,1,95,40.83a5,5,0,0,1-.43-2.29V23a1.21,1.21,0,0,1,.38-.91A1.29,1.29,0,0,1,95.85,21.67Z"/><path class="cls-1" d="M104.46,39.85a1.35,1.35,0,0,1-.26-.88,1.09,1.09,0,0,1,.54-.82,1.13,1.13,0,0,1,.75-.19,1.17,1.17,0,0,1,.78.42,7.12,7.12,0,0,0,2,1.68,5.84,5.84,0,0,0,2.82.62,6.4,6.4,0,0,0,1.54-.26,2.83,2.83,0,0,0,1.3-.78,2.08,2.08,0,0,0,.53-1.49,1.89,1.89,0,0,0-.54-1.42,4.16,4.16,0,0,0-1.41-.86,15.88,15.88,0,0,0-1.89-.59q-1.06-.29-2.08-.66a8,8,0,0,1-1.84-.93,4.35,4.35,0,0,1-1.31-1.41,4,4,0,0,1-.5-2.06,4.07,4.07,0,0,1,.78-2.5,5.08,5.08,0,0,1,2.11-1.63,7.19,7.19,0,0,1,2.9-.58,9,9,0,0,1,1.87.21,7.24,7.24,0,0,1,1.9.7,5.36,5.36,0,0,1,1.63,1.36,1.29,1.29,0,0,1,.32.8,1,1,0,0,1-.42.86,1.15,1.15,0,0,1-.78.22,1.1,1.1,0,0,1-.72-.32,4.45,4.45,0,0,0-1.68-1.23,5.59,5.59,0,0,0-2.22-.43,5.15,5.15,0,0,0-1.5.22,2.76,2.76,0,0,0-1.23.75,2,2,0,0,0-.5,1.46,2,2,0,0,0,.58,1.41,3.94,3.94,0,0,0,1.47.88q.93.34,2,.66t2,.59a7,7,0,0,1,1.71.88,3.94,3.94,0,0,1,1.22,1.39,4.53,4.53,0,0,1,.45,2.13A4,4,0,0,1,116,40.6a5.23,5.23,0,0,1-2.19,1.63,7.62,7.62,0,0,1-2.93.56,9.43,9.43,0,0,1-3.47-.67A7,7,0,0,1,104.46,39.85Z"/><path class="cls-1" d="M131.11,20a1.47,1.47,0,0,1,.62.16,1.39,1.39,0,0,1,.53.42l8.48,12.83-1.12,0,8.58-12.8a1.19,1.19,0,0,1,1.09-.58,1.42,1.42,0,0,1,.9.38,1.2,1.2,0,0,1,.38.93V41.16a1.27,1.27,0,0,1-.38.93,1.39,1.39,0,0,1-1.92,0,1.27,1.27,0,0,1-.38-.93V23.79l.8.16-7.55,11.49a1.83,1.83,0,0,1-.46.38,1.09,1.09,0,0,1-.56.16,1.17,1.17,0,0,1-.58-.16,1.74,1.74,0,0,1-.48-.38l-7.46-11.49.67-.83v18a1.33,1.33,0,0,1-.35.93,1.16,1.16,0,0,1-.9.38,1.11,1.11,0,0,1-.88-.38,1.36,1.36,0,0,1-.34-.93V21.35a1.31,1.31,0,0,1,.37-.91A1.23,1.23,0,0,1,131.11,20Z"/><path class="cls-1" d="M169.35,25.77a1.26,1.26,0,0,1,1.28,1.28V41.16a1.29,1.29,0,0,1-.37.93,1.21,1.21,0,0,1-.91.38,1.2,1.2,0,0,1-.93-.38,1.32,1.32,0,0,1-.35-.93v-3l.61-.06a3.12,3.12,0,0,1-.48,1.54,6.1,6.1,0,0,1-1.31,1.55,7.06,7.06,0,0,1-2,1.18,6.42,6.42,0,0,1-2.45.46,7,7,0,0,1-3.9-1.14,8,8,0,0,1-2.74-3.09,9.56,9.56,0,0,1-1-4.45,9.53,9.53,0,0,1,1-4.46,7.79,7.79,0,0,1,2.74-3,7,7,0,0,1,3.84-1.1A7.18,7.18,0,0,1,165,26,6.75,6.75,0,0,1,167,27.18a6,6,0,0,1,1.38,1.7,3.91,3.91,0,0,1,.5,1.86l-.83-.19V27.05a1.27,1.27,0,0,1,.35-.91A1.23,1.23,0,0,1,169.35,25.77Zm-6.59,14.66a4.94,4.94,0,0,0,2.83-.83,5.6,5.6,0,0,0,1.92-2.26,7.79,7.79,0,0,0,0-6.4,5.49,5.49,0,0,0-1.92-2.24,5.31,5.31,0,0,0-5.63,0A5.51,5.51,0,0,0,158,30.89a7.14,7.14,0,0,0-.7,3.23,7.29,7.29,0,0,0,.69,3.22,5.59,5.59,0,0,0,1.92,2.26A4.94,4.94,0,0,0,162.76,40.43Z"/><path class="cls-1" d="M222.69,26h7.52a1.12,1.12,0,0,1,.85.35,1.16,1.16,0,0,1,.34.83,1.15,1.15,0,0,1-1.18,1.18h-7.52a1.14,1.14,0,0,1-.83-.35,1.17,1.17,0,0,1-.35-.86,1.09,1.09,0,0,1,.35-.82A1.17,1.17,0,0,1,222.69,26Zm3.36-4.35a1.19,1.19,0,0,1,.9.37,1.27,1.27,0,0,1,.35.91V38.41a2.34,2.34,0,0,0,.22,1.15,1.18,1.18,0,0,0,.59.53,2,2,0,0,0,.72.14,1.3,1.3,0,0,0,.56-.11A1.32,1.32,0,0,1,230,40a.79.79,0,0,1,.59.3,1.14,1.14,0,0,1,.27.78,1.15,1.15,0,0,1-.67,1,2.88,2.88,0,0,1-1.5.4q-.45,0-1.1-.06a3.34,3.34,0,0,1-1.3-.42,2.73,2.73,0,0,1-1.07-1.17,5,5,0,0,1-.43-2.29V23a1.21,1.21,0,0,1,.38-.91A1.29,1.29,0,0,1,226.05,21.67Z"/><circle class="cls-7" cx="20.89" cy="14.19" r="3.16"/><circle class="cls-7" cx="40.36" cy="14.07" r="0.67"/><circle class="cls-7" cx="53.4" cy="23.81" r="1.13"/><circle class="cls-7" cx="46.62" cy="22.43" r="1.95"/><circle class="cls-7" cx="89.28" cy="12.64" r="1.21"/><circle class="cls-7" cx="89.33" cy="19.18" r="2.53"/><circle class="cls-7" cx="123.68" cy="18.64" r="3.06"/><circle class="cls-7" cx="126.86" cy="13.48" r="0.85"/><circle class="cls-7" cx="153.57" cy="15.16" r="1.41"/><circle class="cls-7" cx="137.73" cy="14.4" r="2.75"/><circle class="cls-7" cx="170.92" cy="20.9" r="2.58"/><circle class="cls-7" cx="200.73" cy="12.66" r="0.13"/><circle class="cls-7" cx="202.99" cy="22.78" r="1.62"/><circle class="cls-7" cx="216.55" cy="15.79" r="0.44"/><circle class="cls-7" cx="13.63" cy="22.08" r="1.71"/><circle class="cls-7" cx="3.36" cy="25.05" r="2.47"/><circle class="cls-7" cx="137.02" cy="41.36" r="1.26"/><circle class="cls-7" cx="27.96" cy="45.93" r="3"/><circle class="cls-7" cx="7.99" cy="29.05" r="0.01"/><circle class="cls-7" cx="58.75" cy="48.45" r="1.28"/><circle class="cls-7" cx="96.5" cy="49.38" r="0.18"/><circle class="cls-7" cx="141.82" cy="38.39" r="0.09"/><circle class="cls-7" cx="140.22" cy="51" r="3.17"/><circle class="cls-7" cx="130.64" cy="46.33" r="1.28"/><circle class="cls-7" cx="158.87" cy="31.14" r="0.67"/><circle class="cls-7" cx="193.95" cy="50.28" r="0.98"/><circle class="cls-7" cx="214.46" cy="44.7" r="0.48"/><circle class="cls-7" cx="210.97" cy="38.46" r="1.29"/><circle class="cls-7" cx="0.93" cy="36.06" r="0.93"/><circle class="cls-7" cx="11.02" cy="55.92" r="0.97"/><circle class="cls-7" cx="43.76" cy="45.42" r="2.42"/><circle class="cls-7" cx="12.34" cy="51.02" r="1.99"/><circle class="cls-7" cx="52.39" cy="51.79" r="1.94"/><circle class="cls-7" cx="78.25" cy="50.22" r="0.99"/><circle class="cls-7" cx="87.55" cy="47.06" r="1.72"/><circle class="cls-7" cx="79.35" cy="53.38" r="2.11"/><circle class="cls-7" cx="61.1" cy="55.83" r="0.48"/><circle class="cls-7" cx="82.82" cy="35.78" r="0.38"/><circle class="cls-7" cx="104.22" cy="54.3" r="1.35"/><circle class="cls-7" cx="112.6" cy="52.21" r="3.13"/><circle class="cls-7" cx="118.22" cy="46.96" r="2.13"/><circle class="cls-7" cx="158.7" cy="53.24" r="0.24"/><circle class="cls-7" cx="172.89" cy="45.14" r="1.89"/><circle class="cls-7" cx="157.48" cy="48.8" r="1.83"/><circle class="cls-7" cx="150.6" cy="46.18" r="2.19"/><circle class="cls-7" cx="169.19" cy="57.95" r="2.28"/><circle class="cls-7" cx="206.95" cy="51.01" r="0.76"/><circle class="cls-7" cx="186.81" cy="56.81" r="1.42"/><circle class="cls-7" cx="194.03" cy="51.62" r="1.97"/><circle class="cls-7" cx="234.3" cy="50.54" r="3.06"/><circle class="cls-7" cx="241.78" cy="48.76" r="1.05"/></g></g></svg>